<svg xmlns="http://www.w3.org/2000/svg" xmlns:xlink="http://www.w3.org/1999/xlink" viewBox="0 0 527.38 673.32"><defs><style>.cls-1,.cls-2,.cls-4,.cls-6{fill:none;}.cls-2,.cls-4,.cls-6{stroke:#be1622;}.cls-2,.cls-4{stroke-miterlimit:10;}.cls-3{clip-path:url(#clip-path);}.cls-4,.cls-6{stroke-width:2px;}.cls-5{clip-path:url(#clip-path-2);}.cls-6{stroke-linecap:round;stroke-linejoin:round;}.cls-7{clip-path:url(#clip-path-3);}.cls-8{clip-path:url(#clip-path-4);}</style><clipPath id="clip-path"><rect class="cls-1" x="-89.8" y="-81.67" width="657.45" height="755.18"/></clipPath><clipPath id="clip-path-2"><path class="cls-2" d="M32.76,195.17l63.84-126a2,2,0,0,1,3.84,1L83.65,781.81a2,2,0,0,1-1.07,1.75L10.7,822.16a2,2,0,0,1-3-1.88L32.52,196.05A1.93,1.93,0,0,1,32.76,195.17Z"/></clipPath><clipPath id="clip-path-3"><path class="cls-2" d="M180.61,96l51.83-84c1.1-1.69,4.17-1.26,4.2.75l9.73,795.83a2,2,0,0,1-2.05,2.06h-6.15a2,2,0,0,1-2-2l-8.75-698.4a2.05,2.05,0,0,0-1.63-2L181.9,99.1A2,2,0,0,1,180.61,96Z"/></clipPath><clipPath id="clip-path-4"><path class="cls-2" d="M394.12,138.31l9.65-12.07a2,2,0,0,1,3.64,1.15l39.43,675.77a2,2,0,0,1-1.34,2l-13.41,4.91a2,2,0,0,1-2.75-1.8L393.67,139.69A2,2,0,0,1,394.12,138.31Z"/></clipPath></defs><title>daugiabutis svg</title><g id="langai_5" data-name="langai 5"><g class="cls-3"><path class="cls-4" d="M236.15,809l-8.72-698.79a2.06,2.06,0,0,0-1.63-2L179,98.49"/><path class="cls-4" d="M14.4,853.74,15.59,826a2,2,0,0,0-2-2.13H9.67a2,2,0,0,1-2-2.12L32.52,196.05a1.93,1.93,0,0,1,.24-.88l64.09-126a2,2,0,0,1,3.85,1L83.67,781a2.05,2.05,0,0,0,1.93,2.09l89.5,5.17a2.05,2.05,0,0,0,2.16-2L179,88.59a2,2,0,0,0-1.58-2L98.74,68.16"/><path class="cls-4" d="M246.39,809.6,236.63,12.38a2,2,0,0,0-3.75-1.09L179,98.49"/><path class="cls-4" d="M382.41,817.2,352.59,40.79A2,2,0,0,0,351,38.88L234.69,10.35"/><path class="cls-4" d="M493.86,822.91v-4.68a2.05,2.05,0,0,1,1.61-2l25.88-5.73a2,2,0,0,0,1.6-2.13l-44.84-670a2.05,2.05,0,0,0-1.63-1.87l-67.49-15a2,2,0,0,0-2.46,2.12l40.29,679.23a2.05,2.05,0,0,0,1.89,1.92l74.35,5.68"/><path class="cls-4" d="M407.1,122.08l-13.46,16.83a2,2,0,0,0-.45,1.38l36.15,668a2.05,2.05,0,0,0,2.75,1.81l14.84-5.45"/><line class="cls-4" x1="355.76" y1="130.8" x2="393.63" y2="138.91"/><path class="cls-4" d="M250.32,72.84V83a2,2,0,0,0,1.59,2l25.92,5.8a2,2,0,0,0,2.49-2V78.65a2,2,0,0,0-1.6-2l-25.91-5.8A2,2,0,0,0,250.32,72.84Z"/><path class="cls-4" d="M312.87,86.92l.32,9.88a2,2,0,0,0,1.58,1.92l24.93,5.74a2,2,0,0,0,2.5-2.07l-.39-10a2,2,0,0,0-1.59-1.92l-24.86-5.56A2,2,0,0,0,312.87,86.92Z"/><path class="cls-4" d="M251.11,138.15l-.27-23.24a2,2,0,0,1,2.49-2l26.27,5.88a2,2,0,0,1,1.6,2l.51,23.3a2,2,0,0,1-2.49,2l-26.52-5.94A2,2,0,0,1,251.11,138.15Z"/><path class="cls-4" d="M314.23,129.14l.75,23.35a2,2,0,0,0,1.6,1.93l25.31,5.67a2.05,2.05,0,0,0,2.49-2.08l-.92-23.38a2,2,0,0,0-1.59-1.91l-25.15-5.64A2.05,2.05,0,0,0,314.23,129.14Z"/><path class="cls-4" d="M251.33,157.69l.28,23.47a2,2,0,0,0,1.64,2l27,5.38a2,2,0,0,0,2.44-2.05l-.51-23.05a2,2,0,0,0-1.61-1.95l-26.72-5.8A2,2,0,0,0,251.33,157.69Z"/><path class="cls-4" d="M316.32,194.11l-.72-22.44a2,2,0,0,1,2.47-2.06l25.44,5.52a2,2,0,0,1,1.61,1.91l.86,22a2,2,0,0,1-2.44,2.08L318,196.05A2,2,0,0,1,316.32,194.11Z"/><path class="cls-4" d="M252.11,224.36l-.27-23.54a2,2,0,0,1,2.45-2l27.16,5.53a2,2,0,0,1,1.64,2l.51,23.28a2,2,0,0,1-2.43,2.05l-27.4-5.27A2,2,0,0,1,252.11,224.36Z"/><path class="cls-4" d="M317,214.11l.74,22.9a2,2,0,0,0,1.66,1.94l25.86,5a2.06,2.06,0,0,0,2.43-2.09l-.89-22.64a2,2,0,0,0-1.63-1.92L319.41,212A2,2,0,0,0,317,214.11Z"/><path class="cls-4" d="M252.62,268.42l-.28-24.59a2,2,0,0,1,2.43-2l27.62,5.46a2,2,0,0,1,1.64,2l.54,24.31a2,2,0,0,1-2.42,2.06l-27.86-5.19A2,2,0,0,1,252.62,268.42Z"/><path class="cls-4" d="M318.34,256.94l.77,23.9a2.06,2.06,0,0,0,1.67,2l26.16,4.87a2,2,0,0,0,2.41-2.09l-.92-23.63a2,2,0,0,0-1.64-1.92l-26-5.15A2,2,0,0,0,318.34,256.94Z"/><path class="cls-4" d="M252.86,288.57l.29,25a2,2,0,0,0,1.69,2l28.32,5a2,2,0,0,0,2.4-2.06L285,293.69a2.05,2.05,0,0,0-1.67-2l-28.07-5.18A2,2,0,0,0,252.86,288.57Z"/><path class="cls-4" d="M319.76,301l.79,24.51a2,2,0,0,0,1.68,1.94l26.46,4.65a2,2,0,0,0,2.4-2.09l-.95-24.29a2,2,0,0,0-1.67-1.93l-26.3-4.86A2,2,0,0,0,319.76,301Z"/><path class="cls-4" d="M253.38,334.06l.3,25.45a2,2,0,0,0,1.71,2l28.8,4.81a2,2,0,0,0,2.38-2.06L286,339a2.05,2.05,0,0,0-1.69-2l-28.54-5A2.05,2.05,0,0,0,253.38,334.06Z"/><path class="cls-4" d="M321.21,346,322,371a2,2,0,0,0,1.71,1.95l26.76,4.47a2,2,0,0,0,2.37-2.1l-1-24.73a2.06,2.06,0,0,0-1.69-1.94L323.6,344A2,2,0,0,0,321.21,346Z"/><path class="cls-4" d="M253.92,380.31l.31,26.31a2,2,0,0,0,1.73,2l29.29,4.5a2,2,0,0,0,2.35-2.06L287,384.9a2,2,0,0,0-1.71-2l-29-4.66A2.05,2.05,0,0,0,253.92,380.31Z"/><path class="cls-4" d="M322.67,391.39l.83,25.91a2,2,0,0,0,1.73,1.95l27.07,4.16a2,2,0,0,0,2.35-2.1l-1-25.75a2,2,0,0,0-1.71-1.94L325,389.3A2,2,0,0,0,322.67,391.39Z"/><path class="cls-4" d="M254.47,427.52l.32,27.42a2,2,0,0,0,1.75,2l29.79,4.27a2,2,0,0,0,2.33-2.07l-.6-27.17a2,2,0,0,0-1.73-2l-29.51-4.51A2,2,0,0,0,254.47,427.52Z"/><path class="cls-4" d="M324.17,438.21,325,465a2,2,0,0,0,1.75,2l27.38,3.91a2,2,0,0,0,2.33-2.1l-1-26.58a2,2,0,0,0-1.74-1.94l-27.21-4.16A2,2,0,0,0,324.17,438.21Z"/><path class="cls-4" d="M255,475.62l.33,28.4a2,2,0,0,0,1.78,2l30.29,3.89a2.05,2.05,0,0,0,2.31-2.07l-.62-28.08a2.06,2.06,0,0,0-1.76-2l-30-4.21A2.05,2.05,0,0,0,255,475.62Z"/><path class="cls-4" d="M325.7,485.57l.89,27.63a2,2,0,0,0,1.78,2l27.7,3.55a2,2,0,0,0,2.3-2.1l-1.07-27.32a2.05,2.05,0,0,0-1.76-2L328,483.48A2,2,0,0,0,325.7,485.57Z"/><path class="cls-4" d="M255.61,525.32l.33,28.88a2.06,2.06,0,0,0,1.81,2l30.81,3.62a2,2,0,0,0,2.28-2.07l-.64-28.71a2,2,0,0,0-1.79-2l-30.51-3.79A2,2,0,0,0,255.61,525.32Z"/><path class="cls-4" d="M327.26,534.28l.92,28.46a2,2,0,0,0,1.8,2l28,3.3a2,2,0,0,0,2.28-2.11l-1.1-28.3a2,2,0,0,0-1.79-1.94l-27.84-3.47A2.05,2.05,0,0,0,327.26,534.28Z"/><path class="cls-4" d="M256.2,576.11l.35,30a2,2,0,0,0,1.84,2l31.34,3.08a2,2,0,0,0,2.24-2.08l-.65-29.6a2,2,0,0,0-1.82-2l-31-3.46A2,2,0,0,0,256.2,576.11Z"/><path class="cls-4" d="M328.87,584.26l.94,29.09a2,2,0,0,0,1.82,2l28.37,3a2.05,2.05,0,0,0,2.26-2.11l-1.13-29a2,2,0,0,0-1.82-2l-28.17-3.14A2,2,0,0,0,328.87,584.26Z"/><path class="cls-4" d="M256.8,628.17l.36,30.77a2.05,2.05,0,0,0,1.86,2l31.88,2.88a2,2,0,0,0,2.23-2.08l-.67-30.42a2,2,0,0,0-1.84-2l-31.56-3.23A2.05,2.05,0,0,0,256.8,628.17Z"/><path class="cls-4" d="M330.53,635.74l1,30a2,2,0,0,0,1.86,2l28.71,2.6a2,2,0,0,0,2.22-2.11l-1.15-29.65a2.05,2.05,0,0,0-1.84-2l-28.51-2.91A2,2,0,0,0,330.53,635.74Z"/><path class="cls-4" d="M196.73,118.9l.05,23.91a2,2,0,0,0,1.63,2l13.91,2.91a2,2,0,0,0,2.46-2l-.22-24a2.05,2.05,0,0,0-1.63-2l-13.74-2.86A2,2,0,0,0,196.73,118.9Z"/><path class="cls-4" d="M213.28,162.43l-14-2.92a2,2,0,0,0-2.46,2l0,23.91a2.05,2.05,0,0,0,1.63,2l14.1,2.94a2,2,0,0,0,2.46-2l-.15-23.93A2,2,0,0,0,213.28,162.43Z"/><path class="cls-4" d="M196.9,204.17l0,24.63a2,2,0,0,0,1.62,2l14.27,3a2.06,2.06,0,0,0,2.47-2l-.23-24.67a2.05,2.05,0,0,0-1.63-2l-14.09-2.94A2,2,0,0,0,196.9,204.17Z"/><path class="cls-4" d="M197,247.12l.05,25.32a2.05,2.05,0,0,0,1.67,2l14.46,2.69a2,2,0,0,0,2.42-2l-.15-25a2.05,2.05,0,0,0-1.63-2l-14.35-3A2.05,2.05,0,0,0,197,247.12Z"/><path class="cls-4" d="M197.07,291.56l.05,26.39a2,2,0,0,0,1.7,2l14.64,2.55a2,2,0,0,0,2.39-2l-.16-26.18a2,2,0,0,0-1.66-2l-14.53-2.76A2,2,0,0,0,197.07,291.56Z"/><path class="cls-4" d="M197.16,336.85l.05,26.87a2,2,0,0,0,1.71,2l14.83,2.5a2,2,0,0,0,2.38-2L216,339.45a2,2,0,0,0-1.69-2l-14.72-2.62A2.05,2.05,0,0,0,197.16,336.85Z"/><path class="cls-4" d="M197.25,383l.1,27.59a2.06,2.06,0,0,0,1.75,2l15,2.17a2,2,0,0,0,2.34-2l-.17-27.12a2,2,0,0,0-1.68-2L199.65,381A2,2,0,0,0,197.25,383Z"/><path class="cls-4" d="M197.36,430.07l0,28.71a2,2,0,0,0,1.78,2l15.22,2a2.05,2.05,0,0,0,2.31-2l-.17-28.26a2,2,0,0,0-1.72-2l-15.09-2.43A2,2,0,0,0,197.36,430.07Z"/><path class="cls-4" d="M197.44,478.28l.05,29.44a2.05,2.05,0,0,0,1.81,2l15.43,1.76a2,2,0,0,0,2.28-2l-.18-29a2.05,2.05,0,0,0-1.75-2l-15.31-2.22A2,2,0,0,0,197.44,478.28Z"/><path class="cls-4" d="M197.53,527.36v30.25a2,2,0,0,0,1.82,2l15.7,1.67a2,2,0,0,0,2.26-2L217,529.37a2,2,0,0,0-1.78-2l-15.42-2A2,2,0,0,0,197.53,527.36Z"/><path class="cls-4" d="M197.63,578l.06,31a2.05,2.05,0,0,0,1.86,2l15.85,1.42a2,2,0,0,0,2.22-2l-.18-30.64a2.06,2.06,0,0,0-1.81-2l-15.72-1.79A2,2,0,0,0,197.63,578Z"/><path class="cls-4" d="M197.73,630.15l.07,32a2,2,0,0,0,1.88,2l16.07,1.25a2,2,0,0,0,2.2-2l-.2-31.7a2,2,0,0,0-1.84-2L200,628.11A2,2,0,0,0,197.73,630.15Z"/><g class="cls-5"><line class="cls-6" x1="-15.28" y1="266.06" x2="122.99" y2="8.42"/><line class="cls-6" x1="-15.28" y1="282.24" x2="119.53" y2="18.78"/><line class="cls-6" x1="-15.28" y1="298.42" x2="122.99" y2="40.78"/><line class="cls-6" x1="-15.28" y1="314.6" x2="122.99" y2="56.96"/><line class="cls-6" x1="-15.28" y1="330.78" x2="122.99" y2="73.14"/><line class="cls-6" x1="-15.28" y1="346.96" x2="122.99" y2="89.32"/><line class="cls-6" x1="-15.28" y1="363.14" x2="122.99" y2="105.5"/><line class="cls-6" x1="-15.28" y1="379.32" x2="122.99" y2="121.68"/><line class="cls-6" x1="-15.28" y1="395.5" x2="122.99" y2="137.86"/><line class="cls-6" x1="-15.28" y1="411.68" x2="122.99" y2="154.04"/><line class="cls-6" x1="-15.28" y1="427.86" x2="122.99" y2="170.22"/><line class="cls-6" x1="-15.28" y1="444.04" x2="122.99" y2="186.4"/><line class="cls-6" x1="-15.28" y1="460.22" x2="122.99" y2="202.58"/><line class="cls-6" x1="-15.28" y1="476.4" x2="122.99" y2="218.76"/><line class="cls-6" x1="-15.28" y1="492.58" x2="122.99" y2="234.94"/><line class="cls-6" x1="-15.28" y1="508.76" x2="122.99" y2="251.12"/><line class="cls-6" x1="-15.28" y1="524.94" x2="122.99" y2="267.3"/><line class="cls-6" x1="-15.28" y1="541.12" x2="122.99" y2="283.48"/><line class="cls-6" x1="-15.28" y1="557.3" x2="122.99" y2="299.66"/><line class="cls-6" x1="-15.28" y1="573.48" x2="122.99" y2="315.84"/><line class="cls-6" x1="-15.28" y1="589.66" x2="122.99" y2="332.02"/><line class="cls-6" x1="-15.28" y1="605.84" x2="122.99" y2="348.2"/><line class="cls-6" x1="-15.28" y1="622.02" x2="122.99" y2="364.38"/><line class="cls-6" x1="-15.28" y1="638.2" x2="122.99" y2="380.56"/><line class="cls-6" x1="-15.28" y1="654.38" x2="122.99" y2="396.74"/><line class="cls-6" x1="-15.28" y1="670.56" x2="122.99" y2="412.92"/><line class="cls-6" x1="-15.28" y1="686.74" x2="122.99" y2="429.1"/><line class="cls-6" x1="-15.28" y1="702.92" x2="122.99" y2="445.28"/><line class="cls-6" x1="-15.28" y1="719.1" x2="122.99" y2="461.46"/><line class="cls-6" x1="-15.28" y1="735.28" x2="122.99" y2="477.64"/><line class="cls-6" x1="-15.28" y1="751.46" x2="122.99" y2="493.82"/><line class="cls-6" x1="-15.28" y1="767.64" x2="122.99" y2="510"/><line class="cls-6" x1="-15.28" y1="783.82" x2="122.99" y2="526.18"/><line class="cls-6" x1="-15.28" y1="800" x2="122.99" y2="542.36"/><line class="cls-6" x1="-15.28" y1="816.18" x2="122.99" y2="558.54"/><line class="cls-6" x1="-15.28" y1="832.36" x2="122.99" y2="574.72"/><line class="cls-6" x1="-15.28" y1="848.54" x2="122.99" y2="590.9"/><line class="cls-6" x1="-15.28" y1="864.72" x2="122.99" y2="607.08"/><line class="cls-6" x1="-15.28" y1="880.9" x2="122.99" y2="623.26"/><line class="cls-6" x1="-15.28" y1="897.08" x2="122.99" y2="639.44"/><line class="cls-6" x1="-15.28" y1="913.26" x2="122.99" y2="655.62"/><line class="cls-6" x1="-15.28" y1="929.44" x2="122.99" y2="671.8"/></g><path class="cls-2" d="M32.76,195.17l63.84-126a2,2,0,0,1,3.84,1L83.65,781.81a2,2,0,0,1-1.07,1.75L10.7,822.16a2,2,0,0,1-3-1.88L32.52,196.05A1.93,1.93,0,0,1,32.76,195.17Z"/><g class="cls-7"><line class="cls-6" x1="261.39" y1="-131.09" x2="176" y2="-0.3"/><line class="cls-6" x1="261.39" y1="-118.4" x2="176" y2="12.39"/><line class="cls-6" x1="261.39" y1="-105.7" x2="176" y2="25.09"/><line class="cls-6" x1="261.39" y1="-93" x2="176" y2="37.79"/><line class="cls-6" x1="261.39" y1="-80.31" x2="176" y2="50.48"/><line class="cls-6" x1="261.39" y1="-67.61" x2="176" y2="63.18"/><line class="cls-6" x1="261.39" y1="-54.92" x2="176" y2="75.87"/><line class="cls-6" x1="261.39" y1="-42.22" x2="176" y2="88.57"/><line class="cls-6" x1="258.61" y1="-35.46" x2="176" y2="101.26"/><line class="cls-6" x1="261.39" y1="-16.83" x2="176" y2="113.96"/><line class="cls-6" x1="261.39" y1="-4.13" x2="176" y2="126.65"/><line class="cls-6" x1="261.39" y1="8.56" x2="176" y2="139.35"/><line class="cls-6" x1="261.39" y1="21.26" x2="176" y2="152.05"/><line class="cls-6" x1="261.39" y1="33.95" x2="176" y2="164.74"/><line class="cls-6" x1="261.39" y1="46.65" x2="176" y2="177.44"/><line class="cls-6" x1="261.39" y1="59.34" x2="176" y2="190.13"/><line class="cls-6" x1="261.39" y1="72.04" x2="176" y2="202.83"/><line class="cls-6" x1="261.39" y1="84.73" x2="176" y2="215.52"/><line class="cls-6" x1="261.39" y1="97.43" x2="176" y2="228.22"/><line class="cls-6" x1="261.39" y1="110.13" x2="176" y2="240.91"/><line class="cls-6" x1="261.39" y1="122.82" x2="176" y2="253.61"/><line class="cls-6" x1="261.39" y1="135.52" x2="176" y2="266.31"/><line class="cls-6" x1="261.39" y1="148.21" x2="176" y2="279"/><line class="cls-6" x1="261.39" y1="160.91" x2="176" y2="291.7"/><line class="cls-6" x1="261.39" y1="173.6" x2="176" y2="304.39"/><line class="cls-6" x1="261.39" y1="186.3" x2="176" y2="317.09"/><line class="cls-6" x1="261.39" y1="198.99" x2="176" y2="329.78"/><line class="cls-6" x1="261.39" y1="211.69" x2="176" y2="342.48"/><line class="cls-6" x1="261.39" y1="224.39" x2="176" y2="355.18"/><line class="cls-6" x1="261.39" y1="237.08" x2="176" y2="367.87"/><line class="cls-6" x1="261.39" y1="249.78" x2="176" y2="380.57"/><line class="cls-6" x1="261.39" y1="262.47" x2="176" y2="393.26"/><line class="cls-6" x1="261.39" y1="275.17" x2="176" y2="405.96"/><line class="cls-6" x1="261.39" y1="287.86" x2="176" y2="418.65"/><line class="cls-6" x1="261.39" y1="300.56" x2="176" y2="431.35"/><line class="cls-6" x1="261.39" y1="313.26" x2="176" y2="444.04"/><line class="cls-6" x1="261.39" y1="325.95" x2="176" y2="456.74"/><line class="cls-6" x1="261.39" y1="338.65" x2="176" y2="469.44"/><line class="cls-6" x1="261.39" y1="351.34" x2="176" y2="482.13"/><line class="cls-6" x1="261.39" y1="364.04" x2="176" y2="494.83"/><line class="cls-6" x1="261.39" y1="376.73" x2="176" y2="507.52"/><line class="cls-6" x1="261.39" y1="389.43" x2="176" y2="520.22"/><line class="cls-6" x1="261.39" y1="402.12" x2="176" y2="532.91"/><line class="cls-6" x1="261.39" y1="414.82" x2="176" y2="545.61"/><line class="cls-6" x1="261.39" y1="427.52" x2="176" y2="558.31"/><line class="cls-6" x1="261.39" y1="440.21" x2="176" y2="571"/><line class="cls-6" x1="261.39" y1="452.91" x2="176" y2="583.7"/><line class="cls-6" x1="261.39" y1="465.6" x2="176" y2="596.39"/><line class="cls-6" x1="261.39" y1="478.3" x2="176" y2="609.09"/><line class="cls-6" x1="261.39" y1="490.99" x2="176" y2="621.78"/><line class="cls-6" x1="261.39" y1="503.69" x2="176" y2="634.48"/><line class="cls-6" x1="261.39" y1="516.38" x2="176" y2="647.17"/><line class="cls-6" x1="261.39" y1="529.08" x2="176" y2="659.87"/><line class="cls-6" x1="261.39" y1="541.78" x2="176" y2="672.57"/><line class="cls-6" x1="261.39" y1="554.47" x2="176" y2="685.26"/><line class="cls-6" x1="261.39" y1="567.17" x2="176" y2="697.96"/><line class="cls-6" x1="261.39" y1="579.86" x2="176" y2="710.65"/><line class="cls-6" x1="261.39" y1="592.56" x2="176" y2="723.35"/><line class="cls-6" x1="261.39" y1="605.25" x2="176" y2="736.04"/><line class="cls-6" x1="261.39" y1="617.95" x2="176" y2="748.74"/><line class="cls-6" x1="261.39" y1="630.65" x2="176" y2="761.43"/><line class="cls-6" x1="261.39" y1="643.34" x2="176" y2="774.13"/><line class="cls-6" x1="261.39" y1="656.04" x2="176" y2="786.83"/><line class="cls-6" x1="261.39" y1="668.73" x2="176" y2="799.52"/></g><path class="cls-2" d="M180.61,96l51.83-84c1.1-1.69,4.17-1.26,4.2.75l9.73,795.83a2,2,0,0,1-2.05,2.06h-6.15a2,2,0,0,1-2-2l-8.75-698.4a2.05,2.05,0,0,0-1.63-2L181.9,99.1A2,2,0,0,1,180.61,96Z"/><g class="cls-8"><line class="cls-4" x1="491.1" y1="-138.6" x2="374.69" y2="6.91"/><line class="cls-4" x1="491.1" y1="-126.75" x2="374.69" y2="18.75"/><line class="cls-4" x1="491.1" y1="-114.9" x2="374.69" y2="30.6"/><line class="cls-4" x1="491.1" y1="-103.06" x2="374.69" y2="42.45"/><line class="cls-4" x1="491.1" y1="-91.21" x2="374.69" y2="54.3"/><line class="cls-4" x1="491.1" y1="-79.36" x2="374.69" y2="66.15"/><line class="cls-4" x1="491.1" y1="-67.51" x2="374.69" y2="77.99"/><line class="cls-4" x1="491.1" y1="-55.66" x2="374.69" y2="89.84"/><line class="cls-4" x1="491.1" y1="-43.82" x2="374.69" y2="101.69"/><line class="cls-4" x1="491.1" y1="-31.97" x2="374.69" y2="113.54"/><line class="cls-4" x1="491.1" y1="-20.12" x2="374.69" y2="125.38"/><line class="cls-4" x1="491.1" y1="-8.27" x2="374.69" y2="137.23"/><line class="cls-4" x1="491.1" y1="3.57" x2="374.69" y2="149.08"/><line class="cls-4" x1="491.1" y1="15.42" x2="374.69" y2="160.93"/><line class="cls-4" x1="491.1" y1="27.27" x2="374.69" y2="172.78"/><line class="cls-4" x1="491.1" y1="39.12" x2="374.69" y2="184.62"/><line class="cls-4" x1="491.1" y1="50.97" x2="374.69" y2="196.47"/><line class="cls-4" x1="491.1" y1="62.81" x2="374.69" y2="208.32"/><line class="cls-4" x1="491.1" y1="74.66" x2="374.69" y2="220.17"/><line class="cls-4" x1="491.1" y1="86.51" x2="374.69" y2="232.01"/><line class="cls-4" x1="491.1" y1="98.36" x2="374.69" y2="243.86"/><line class="cls-4" x1="491.1" y1="110.2" x2="374.69" y2="255.71"/><line class="cls-4" x1="491.1" y1="122.05" x2="374.69" y2="267.56"/><line class="cls-4" x1="491.1" y1="133.9" x2="374.69" y2="279.41"/><line class="cls-4" x1="491.1" y1="145.75" x2="374.69" y2="291.25"/><line class="cls-4" x1="491.1" y1="157.6" x2="374.69" y2="303.1"/><line class="cls-4" x1="491.1" y1="169.44" x2="374.69" y2="314.95"/><line class="cls-4" x1="491.1" y1="181.29" x2="374.69" y2="326.8"/><line class="cls-4" x1="491.1" y1="193.14" x2="374.69" y2="338.64"/><line class="cls-4" x1="491.1" y1="204.99" x2="374.69" y2="350.49"/><line class="cls-4" x1="491.1" y1="216.84" x2="374.69" y2="362.34"/><line class="cls-4" x1="491.1" y1="228.68" x2="374.69" y2="374.19"/><line class="cls-4" x1="491.1" y1="240.53" x2="374.69" y2="386.04"/><line class="cls-4" x1="491.1" y1="252.38" x2="374.69" y2="397.88"/><line class="cls-4" x1="491.1" y1="264.23" x2="374.69" y2="409.73"/><line class="cls-4" x1="491.1" y1="276.07" x2="374.69" y2="421.58"/><line class="cls-4" x1="491.1" y1="287.92" x2="374.69" y2="433.43"/><line class="cls-4" x1="491.1" y1="299.77" x2="374.69" y2="445.27"/><line class="cls-4" x1="491.1" y1="311.62" x2="374.69" y2="457.12"/><line class="cls-4" x1="491.1" y1="323.47" x2="374.69" y2="468.97"/><line class="cls-4" x1="491.1" y1="335.31" x2="374.69" y2="480.82"/><line class="cls-4" x1="491.1" y1="347.16" x2="374.69" y2="492.67"/><line class="cls-4" x1="491.1" y1="359.01" x2="374.69" y2="504.51"/><line class="cls-4" x1="491.1" y1="370.86" x2="374.69" y2="516.36"/><line class="cls-4" x1="491.1" y1="382.7" x2="374.69" y2="528.21"/><line class="cls-4" x1="491.1" y1="394.55" x2="374.69" y2="540.06"/><line class="cls-4" x1="491.1" y1="406.4" x2="374.69" y2="551.9"/><line class="cls-4" x1="491.1" y1="418.25" x2="374.69" y2="563.75"/><line class="cls-4" x1="491.1" y1="430.1" x2="374.69" y2="575.6"/><line class="cls-4" x1="491.1" y1="441.94" x2="374.69" y2="587.45"/><line class="cls-4" x1="491.1" y1="453.79" x2="374.69" y2="599.3"/><line class="cls-4" x1="491.1" y1="465.64" x2="374.69" y2="611.14"/><line class="cls-4" x1="491.1" y1="477.49" x2="374.69" y2="622.99"/><line class="cls-4" x1="491.1" y1="489.33" x2="374.69" y2="634.84"/><line class="cls-4" x1="491.1" y1="501.18" x2="374.69" y2="646.69"/><line class="cls-4" x1="491.1" y1="513.03" x2="374.69" y2="658.54"/><line class="cls-4" x1="491.1" y1="524.88" x2="374.69" y2="670.38"/><line class="cls-4" x1="491.1" y1="536.73" x2="374.69" y2="682.23"/><line class="cls-4" x1="491.1" y1="548.57" x2="374.69" y2="694.08"/><line class="cls-4" x1="491.1" y1="560.42" x2="374.69" y2="705.93"/><line class="cls-4" x1="491.1" y1="572.27" x2="374.69" y2="717.77"/><line class="cls-4" x1="491.1" y1="584.12" x2="374.69" y2="729.62"/><line class="cls-4" x1="491.1" y1="595.96" x2="374.69" y2="741.47"/><line class="cls-4" x1="491.1" y1="607.81" x2="374.69" y2="753.32"/><line class="cls-4" x1="491.1" y1="619.66" x2="374.69" y2="765.17"/><line class="cls-4" x1="491.1" y1="631.51" x2="374.69" y2="777.01"/><line class="cls-4" x1="491.1" y1="643.36" x2="374.69" y2="788.86"/><line class="cls-4" x1="491.1" y1="655.2" x2="374.69" y2="800.71"/><line class="cls-4" x1="491.1" y1="667.05" x2="374.69" y2="812.56"/></g><path class="cls-2" d="M394.12,138.31l9.65-12.07a2,2,0,0,1,3.64,1.15l39.43,675.77a2,2,0,0,1-1.34,2l-13.41,4.91a2,2,0,0,1-2.75-1.8L393.67,139.69A2,2,0,0,1,394.12,138.31Z"/><line class="cls-4" x1="179" y1="94.94" x2="100.54" y2="76.87"/><line class="cls-4" x1="178.81" y1="127.89" x2="100.34" y2="110.18"/><line class="cls-4" x1="179" y1="140.34" x2="100.54" y2="122.63"/><line class="cls-4" x1="178.23" y1="171.48" x2="99.76" y2="154.13"/><line class="cls-4" x1="178.76" y1="215.89" x2="98.57" y2="199.54"/><line class="cls-4" x1="178.76" y1="228.41" x2="97.76" y2="212.26"/><line class="cls-4" x1="178.04" y1="260.62" x2="97.04" y2="245.19"/><line class="cls-4" x1="178.04" y1="273.83" x2="97.04" y2="258.39"/><line class="cls-4" x1="178.45" y1="306.69" x2="96.13" y2="291.72"/><line class="cls-4" x1="178.45" y1="319.89" x2="96.13" y2="305.28"/><line class="cls-4" x1="177.67" y1="353.59" x2="94.29" y2="339.52"/><line class="cls-4" x1="177.67" y1="367.21" x2="94.29" y2="353.14"/><line class="cls-4" x1="177.67" y1="401.49" x2="93.72" y2="388.79"/><line class="cls-4" x1="177.67" y1="414.76" x2="93.72" y2="402.07"/><line class="cls-4" x1="178.1" y1="450.55" x2="92.21" y2="438.28"/><line class="cls-4" x1="178.1" y1="464.73" x2="92.21" y2="452.46"/><line class="cls-4" x1="177.39" y1="500.81" x2="91.51" y2="489.62"/><line class="cls-4" x1="177.39" y1="515" x2="90.23" y2="504.02"/><line class="cls-4" x1="177.39" y1="551.66" x2="90.23" y2="541.76"/><line class="cls-4" x1="177.39" y1="566.51" x2="89.35" y2="556.5"/><line class="cls-4" x1="177.71" y1="604.43" x2="88.28" y2="595.64"/><line class="cls-4" x1="176.88" y1="619.36" x2="87.45" y2="610.57"/><line class="cls-4" x1="177.96" y1="658.06" x2="87.45" y2="650.71"/><line class="cls-4" x1="177.29" y1="673.51" x2="86.77" y2="666.16"/><path class="cls-4" d="M357,155.74l.81,21.3a2.05,2.05,0,0,0,1.62,1.92l11.42,2.45a2,2,0,0,0,2.47-2.1l-1-21.33a2,2,0,0,0-1.62-1.9l-11.25-2.42A2,2,0,0,0,357,155.74Z"/><path class="cls-4" d="M358.57,196.53l.82,21.3a2.06,2.06,0,0,0,1.61,1.92l11.74,2.51a2,2,0,0,0,2.47-2.09l-1-21.33a2,2,0,0,0-1.61-1.91L361,194.45A2,2,0,0,0,358.57,196.53Z"/><path class="cls-4" d="M360.15,237.69l.85,22.09a2.06,2.06,0,0,0,1.63,1.93l12.05,2.47a2,2,0,0,0,2.46-2.09l-1-22.24a2,2,0,0,0-1.64-1.91l-11.88-2.34A2,2,0,0,0,360.15,237.69Z"/><path class="cls-4" d="M361.76,279.52l.88,22.83a2,2,0,0,0,1.63,1.92l12.37,2.54a2,2,0,0,0,2.46-2.09l-1.06-23a2,2,0,0,0-1.65-1.91l-12.19-2.4A2,2,0,0,0,361.76,279.52Z"/><path class="cls-4" d="M363.4,322.33l.91,23.73A2,2,0,0,0,366,348l12.7,2.28a2,2,0,0,0,2.41-2.1L380,324.51a2,2,0,0,0-1.67-1.91l-12.52-2.36A2,2,0,0,0,363.4,322.33Z"/><path class="cls-4" d="M365.08,365.93l.93,24.3a2.06,2.06,0,0,0,1.7,1.94l13,2.22a2,2,0,0,0,2.39-2.11L382,367.84a2,2,0,0,0-1.71-1.92l-12.84-2.08A2,2,0,0,0,365.08,365.93Z"/><path class="cls-4" d="M366.79,410.59l1,24.92a2,2,0,0,0,1.75,1.94l13.36,1.93a2,2,0,0,0,2.33-2.11l-1.14-24.95a2.06,2.06,0,0,0-1.75-1.93l-13.17-1.9A2,2,0,0,0,366.79,410.59Z"/><path class="cls-4" d="M368.54,456.15l1,25.64a2,2,0,0,0,1.76,1.94L385,485.59a2,2,0,0,0,2.31-2.11l-1.18-25.67a2.05,2.05,0,0,0-1.77-1.93l-13.51-1.83A2,2,0,0,0,368.54,456.15Z"/><path class="cls-4" d="M370.31,502.19l1,26.47a2,2,0,0,0,1.78,2l14.07,1.78a2,2,0,0,0,2.29-2.12l-1.22-26.61a2.05,2.05,0,0,0-1.8-1.94l-13.86-1.64A2.05,2.05,0,0,0,370.31,502.19Z"/><path class="cls-4" d="M372.14,549.74l1,27.18a2,2,0,0,0,1.82,2l14.42,1.58a2,2,0,0,0,2.27-2.12L390.43,551a2,2,0,0,0-1.84-1.94l-14.21-1.44A2,2,0,0,0,372.14,549.74Z"/><path class="cls-4" d="M374,598.24l1.07,27.89a2.05,2.05,0,0,0,1.89,2l14.77,1.1a2,2,0,0,0,2.2-2.13l-1.28-27.65a2,2,0,0,0-1.85-1.94l-14.57-1.35A2,2,0,0,0,374,598.24Z"/><path class="cls-4" d="M375.91,648.05l1.1,28.62a2,2,0,0,0,1.91,2l15.15,1a2.05,2.05,0,0,0,2.18-2.14l-1.31-28.37a2,2,0,0,0-1.87-1.94l-14.95-1.25A2,2,0,0,0,375.91,648.05Z"/><line class="cls-4" x1="479.92" y1="155.71" x2="407.93" y2="140.24"/><line class="cls-4" x1="482.38" y1="192.55" x2="410.39" y2="178.16"/><line class="cls-4" x1="482.92" y1="204.31" x2="410.93" y2="189.91"/><line class="cls-4" x1="484.7" y1="233.77" x2="412.71" y2="219.38"/><line class="cls-4" x1="485.29" y1="245.35" x2="413.31" y2="231.32"/><line class="cls-4" x1="487.36" y1="275.4" x2="415.37" y2="261.73"/><line class="cls-4" x1="487.38" y1="286.81" x2="415.39" y2="273.14"/><line class="cls-4" x1="490.33" y1="317.24" x2="418.34" y2="304.66"/><line class="cls-4" x1="490.33" y1="329.33" x2="418.34" y2="316.74"/><line class="cls-4" x1="492.87" y1="360.15" x2="420.88" y2="348.28"/><line class="cls-4" x1="493.47" y1="372.7" x2="421.48" y2="360.83"/><line class="cls-4" x1="495.88" y1="404.35" x2="423.53" y2="392.85"/><line class="cls-4" x1="496.24" y1="416.65" x2="423.53" y2="405.87"/><line class="cls-4" x1="499.2" y1="448.83" x2="425.05" y2="438.4"/><line class="cls-4" x1="499.56" y1="461.71" x2="425.41" y2="451.28"/><line class="cls-4" x1="502.16" y1="494.54" x2="428.01" y2="484.83"/><line class="cls-4" x1="502.89" y1="507.62" x2="428.74" y2="497.92"/><line class="cls-4" x1="505.43" y1="541.35" x2="431.29" y2="532.36"/><line class="cls-4" x1="505.79" y1="554.49" x2="431.65" y2="546.22"/><line class="cls-4" x1="508.17" y1="588.8" x2="434.02" y2="580.9"/><line class="cls-4" x1="509.14" y1="602.77" x2="434.99" y2="594.86"/><line class="cls-4" x1="511.35" y1="637.7" x2="437.2" y2="630.52"/><line class="cls-4" x1="512.15" y1="651.55" x2="438" y2="644.72"/></g></g></svg>