<svg id="Layer_2" data-name="Layer 2" xmlns="http://www.w3.org/2000/svg" xmlns:xlink="http://www.w3.org/1999/xlink" viewBox="0 0 137.74 479.89"><defs><style>.cls-1,.cls-3{fill:none;}.cls-2{clip-path:url(#clip-path);}.cls-3{stroke:#c1272d;stroke-miterlimit:10;stroke-width:3px;}</style><clipPath id="clip-path"><rect class="cls-1" x="0.74" y="-0.11" width="137.5" height="480.5"/></clipPath></defs><title>fragmentas</title><g class="cls-2"><line class="cls-3" x1="1.24" y1="487.39" x2="140.24" y2="1.39"/><line class="cls-3" x1="9.24" y1="460.39" x2="141.24" y2="460.39"/><line class="cls-3" x1="14.74" y1="438.39" x2="146.74" y2="438.39"/><line class="cls-3" x1="21.24" y1="416.39" x2="153.24" y2="416.39"/><line class="cls-3" x1="26.74" y1="394.39" x2="158.74" y2="394.39"/><line class="cls-3" x1="35.24" y1="372.39" x2="167.24" y2="372.39"/><line class="cls-3" x1="40.74" y1="350.39" x2="172.74" y2="350.39"/><line class="cls-3" x1="46.24" y1="328.39" x2="178.24" y2="328.39"/><line class="cls-3" x1="51.74" y1="306.39" x2="183.74" y2="306.39"/><line class="cls-3" x1="59.24" y1="284.39" x2="191.24" y2="284.39"/><line class="cls-3" x1="64.74" y1="262.39" x2="196.74" y2="262.39"/><line class="cls-3" x1="72.24" y1="240.39" x2="204.24" y2="240.39"/><line class="cls-3" x1="77.74" y1="218.39" x2="209.74" y2="218.39"/><line class="cls-3" x1="84.24" y1="196.39" x2="216.24" y2="196.39"/><line class="cls-3" x1="89.74" y1="174.39" x2="221.74" y2="174.39"/><line class="cls-3" x1="97.24" y1="152.39" x2="229.24" y2="152.39"/><line class="cls-3" x1="102.74" y1="130.39" x2="234.74" y2="130.39"/><line class="cls-3" x1="109.24" y1="108.39" x2="241.24" y2="108.39"/><line class="cls-3" x1="114.74" y1="86.39" x2="246.74" y2="86.39"/><line class="cls-3" x1="122.24" y1="64.39" x2="254.24" y2="64.39"/><line class="cls-3" x1="127.74" y1="42.39" x2="259.74" y2="42.39"/><line class="cls-3" x1="135.24" y1="20.39" x2="267.24" y2="20.39"/></g></svg>