<svg xmlns="http://www.w3.org/2000/svg" viewBox="0 0 68.38 41.95"><defs><style>.cls-1{fill:#c1272d;}</style></defs><title>logo pilnas</title><g id="Layer_2" data-name="Layer 2"><g id="Layer_1-2" data-name="Layer 1"><path class="cls-1" d="M4.06,38.21a3.74,3.74,0,0,0-.93-.4,2.88,2.88,0,0,1-.84-.35A.59.59,0,0,1,2,37a.61.61,0,0,1,.24-.51,1,1,0,0,1,.65-.18,1,1,0,0,1,.7.22.76.76,0,0,1,.25.61h.86a1.45,1.45,0,0,0-.23-.78,1.56,1.56,0,0,0-.64-.55,2.27,2.27,0,0,0-.93-.19A2,2,0,0,0,1.67,36a1.2,1.2,0,0,0-.49,1,1.28,1.28,0,0,0,.68,1.12,3.76,3.76,0,0,0,1,.4,2.75,2.75,0,0,1,.84.36.62.62,0,0,1,.23.51.59.59,0,0,1-.23.48,1.08,1.08,0,0,1-.68.18,1.19,1.19,0,0,1-.8-.23.79.79,0,0,1-.28-.66H1a1.4,1.4,0,0,0,.25.82,1.74,1.74,0,0,0,.71.56,2.47,2.47,0,0,0,1,.2,2.11,2.11,0,0,0,1.3-.37,1.21,1.21,0,0,0,.47-1,1.3,1.3,0,0,0-.16-.67A1.39,1.39,0,0,0,4.06,38.21Z"/><polygon class="cls-1" points="9.1 35.69 5.15 35.69 5.15 36.39 6.69 36.39 6.69 40.67 7.54 40.67 7.54 36.39 9.1 36.39 9.1 35.69"/><path class="cls-1" d="M10.78,35.69l-1.88,5h.89l.41-1.16h1.93l.4,1.16h.9l-1.88-5Zm-.34,3.12.72-2.06.72,2.06Z"/><polygon class="cls-1" points="13.24 36.39 14.77 36.39 14.77 40.67 15.63 40.67 15.63 36.39 17.18 36.39 17.18 35.69 13.24 35.69 13.24 36.39"/><polygon class="cls-1" points="19.52 38.05 18.37 35.69 17.41 35.69 19.08 38.84 19.08 40.67 19.95 40.67 19.95 38.84 21.62 35.69 20.66 35.69 19.52 38.05"/><path class="cls-1" d="M24.86,38.08a1.12,1.12,0,0,0,.54-.43,1,1,0,0,0,.19-.61,1.21,1.21,0,0,0-.44-1,2.07,2.07,0,0,0-1.29-.34h-1.7v5H24a2,2,0,0,0,1.29-.38,1.33,1.33,0,0,0,.45-1.08,1.23,1.23,0,0,0-.22-.72A1.11,1.11,0,0,0,24.86,38.08ZM23,36.39h.84a1.07,1.07,0,0,1,.66.16.65.65,0,0,1,.21.54.62.62,0,0,1-.23.51.93.93,0,0,1-.63.19H23Zm1.6,3.39A1,1,0,0,1,24,40H23V38.42h1a.72.72,0,0,1,.8.79A.73.73,0,0,1,24.62,39.78Z"/><path class="cls-1" d="M29.35,39c0,.71-.33,1.06-1,1.06a1,1,0,0,1-.74-.27,1,1,0,0,1-.25-.76V35.69h-.87V39A1.62,1.62,0,0,0,27,40.28a2,2,0,0,0,1.37.46.82.82,0,0,0-.18.52.65.65,0,0,0,.19.5.73.73,0,0,0,.53.19,1.07,1.07,0,0,0,.56-.15l-.07-.49a.62.62,0,0,1-.31.08c-.16,0-.24-.07-.24-.23a.5.5,0,0,1,.13-.34,1.74,1.74,0,0,1,.35-.29,1.54,1.54,0,0,0,.66-.6,1.78,1.78,0,0,0,.22-.91V35.69h-.86Z"/><polygon class="cls-1" points="33.74 38.45 35.79 38.45 35.79 37.76 33.74 37.76 33.74 36.39 36.11 36.39 36.11 35.69 32.88 35.69 32.88 40.67 36.13 40.67 36.13 39.98 33.74 39.98 33.74 38.45"/><polygon class="cls-1" points="40.68 35.69 39.64 35.69 38.18 37.44 37.7 38.02 37.7 35.69 36.84 35.69 36.84 40.67 37.7 40.67 37.7 39.12 38.27 38.52 39.76 40.67 40.79 40.67 38.83 37.9 40.68 35.69"/><path class="cls-1" d="M44,38.21a4,4,0,0,0-.94-.4,2.8,2.8,0,0,1-.83-.35A.56.56,0,0,1,42,37a.6.6,0,0,1,.23-.51,1.08,1.08,0,0,1,.66-.18,1.07,1.07,0,0,1,.7.22.79.79,0,0,1,.24.61h.86a1.45,1.45,0,0,0-.23-.78,1.5,1.5,0,0,0-.64-.55,2.27,2.27,0,0,0-.93-.19,2,2,0,0,0-1.27.39,1.2,1.2,0,0,0-.49,1,1.3,1.3,0,0,0,.68,1.12,4,4,0,0,0,1,.4,2.66,2.66,0,0,1,.83.36.62.62,0,0,1,.23.51.56.56,0,0,1-.23.48,1.05,1.05,0,0,1-.67.18,1.22,1.22,0,0,1-.81-.23.82.82,0,0,1-.28-.66H41a1.33,1.33,0,0,0,.25.82,1.71,1.71,0,0,0,.7.56,2.48,2.48,0,0,0,1,.2,2.1,2.1,0,0,0,1.29-.37,1.19,1.19,0,0,0,.48-1,1.31,1.31,0,0,0-.17-.67A1.44,1.44,0,0,0,44,38.21Z"/><path class="cls-1" d="M47.38,35.69H45.47v5h.87V38.82h1a2,2,0,0,0,1.34-.4,1.59,1.59,0,0,0,0-2.29A1.91,1.91,0,0,0,47.38,35.69Zm.7,2.22a1,1,0,0,1-.7.22h-1V36.39H47.4a.93.93,0,0,1,.68.25.87.87,0,0,1,.25.64A.83.83,0,0,1,48.08,37.91Z"/><polygon class="cls-1" points="50.81 38.45 52.86 38.45 52.86 37.76 50.81 37.76 50.81 36.39 53.18 36.39 53.18 35.69 49.95 35.69 49.95 40.67 53.2 40.67 53.2 39.98 50.81 39.98 50.81 38.45"/><path class="cls-1" d="M57.21,38a1.58,1.58,0,0,0-.22-2,2,2,0,0,0-1.33-.39H53.91v5h.86V38.75h1l1,1.92h.93v-.05l-1.12-2.07A1.47,1.47,0,0,0,57.21,38Zm-1.55,0h-.89V36.39h.91a1,1,0,0,1,.68.22.85.85,0,0,1,.23.62.76.76,0,0,1-.25.61A1,1,0,0,1,55.66,38.06Z"/><polygon class="cls-1" points="61.7 35.69 57.75 35.69 57.75 36.39 59.29 36.39 59.29 40.67 60.15 40.67 60.15 36.39 61.7 36.39 61.7 35.69"/><path class="cls-1" d="M63.38,35.69l-1.88,5h.9l.4-1.16h1.93l.4,1.16H66l-1.89-5ZM63,38.81l.72-2.06.73,2.06Z"/><rect class="cls-1" x="66.65" y="35.69" width="0.86" height="4.98"/><path class="cls-1" d="M67.38,29.59H59.46v-5a1.19,1.19,0,0,0-.37-.86l-4.58-4.39a1.18,1.18,0,0,0-1.58-.09l-1.32,1.05-4.75-4.42a1.18,1.18,0,0,0-1.64,0l-6.49,6.31a1.22,1.22,0,0,0-.36.86v6.49H34.49V6A1.19,1.19,0,0,0,33.3,4.82H28.15V1.19A1.19,1.19,0,0,0,27,0H9.85A1.19,1.19,0,0,0,8.66,1.19v28.4H1a1,1,0,0,0,0,2H9.47a1.19,1.19,0,0,0,1.19-1.19V2H26.15V31.59H40.37V23.44l5.69-5.53,4.46,4.14a1.55,1.55,0,0,0,2.08.06l1-.82L57.46,25v6.62h9.92a1,1,0,0,0,0-2ZM28.15,6.82h4.34V29.59H28.15Z"/></g></g></svg>