<svg xmlns="http://www.w3.org/2000/svg" viewBox="0 0 68.38 31.59"><defs><style>.cls-1{fill:none;stroke:#c1272d;stroke-linecap:round;stroke-miterlimit:10;stroke-width:2px;}</style></defs><title>logotipas</title><g id="Layer_3" data-name="Layer 3"><path class="cls-1" d="M33.49,30.59V6a.19.19,0,0,0-.19-.19H27.15"/></g><g id="Layer_2" data-name="Layer 2"><path class="cls-1" d="M1,30.59H9.47a.18.18,0,0,0,.19-.19V1.19A.2.2,0,0,1,9.85,1H27a.19.19,0,0,1,.19.19V30.4a.19.19,0,0,0,.19.19H39.18a.19.19,0,0,0,.19-.19V23.1a.24.24,0,0,1,.05-.14l6.5-6.31a.19.19,0,0,1,.26,0l5,4.67a.56.56,0,0,0,.77,0l1.58-1.26a.2.2,0,0,1,.26,0l4.59,4.41a.17.17,0,0,1,.06.14V30.4a.18.18,0,0,0,.19.19h8.73"/></g></svg>