<svg xmlns="http://www.w3.org/2000/svg" viewBox="0 0 68.38 31.59"><defs><style>.cls-1{fill:#c1272d;}</style></defs><title>svg  se logo m2</title><g id="Layer_2" data-name="Layer 2"><g id="Layer_1-2" data-name="Layer 1"><path class="cls-1" d="M67.38,29.59H59.46v-5a1.19,1.19,0,0,0-.37-.86l-4.58-4.39a1.18,1.18,0,0,0-1.58-.09l-1.32,1.05-4.75-4.42a1.18,1.18,0,0,0-1.64,0l-6.49,6.31a1.22,1.22,0,0,0-.36.86v6.49H34.49V6A1.19,1.19,0,0,0,33.3,4.82H28.15V1.19A1.19,1.19,0,0,0,27,0H9.85A1.19,1.19,0,0,0,8.66,1.19v28.4H1a1,1,0,0,0,0,2H9.47a1.19,1.19,0,0,0,1.19-1.19V2H26.15V31.59H40.37V23.44l5.69-5.53,4.46,4.14a1.55,1.55,0,0,0,2.08.06l1-.82L57.46,25v6.62h9.92a1,1,0,0,0,0-2ZM28.15,6.82h4.34V29.59H28.15Z"/></g></g></svg>