<svg xmlns="http://www.w3.org/2000/svg" viewBox="0 0 148.5 148.5"><defs><style>.cls-1,.cls-2{fill:none;stroke:#1c5d99;stroke-miterlimit:10;stroke-width:4px;}.cls-2{stroke-linecap:round;}</style></defs><title>phone  mobile</title><g id="Layer_2" data-name="Layer 2"><g id="komerc_langai" data-name="komerc langai"><circle class="cls-1" cx="74.25" cy="74.25" r="72.25"/><path class="cls-1" d="M50.27,76.87A67.78,67.78,0,0,1,44.79,56.2C44.42,52.41,44,47.47,46,44c3.46-6.08,12.4-5.59,15-4.1s4.72,11.9,3.73,13.64c-1.49,2.6-2.73.74-5.7,6-1,1.69-.62,3.91-.21,5.71a43.43,43.43,0,0,0,5.59,12.86,47.73,47.73,0,0,0,7.77,10.15A7.51,7.51,0,0,0,77,90.55c6,0,5-2,8-2,2,0,10,7,10,10s-4,11-11,11a14.56,14.56,0,0,1-6.47-2.08,49.35,49.35,0,0,1-8.33-5.71A68.62,68.62,0,0,1,52,80.45C51.38,79.27,50.81,78.08,50.27,76.87Z"/><path class="cls-2" d="M75.43,60.62A7.66,7.66,0,0,1,84.26,64c4,5.83-.05,9.44-.05,9.44"/><path class="cls-2" d="M77.59,52.84s8.69-3.25,14.75,5.56c6.69,9.73-.09,15.75-.09,15.75"/><path class="cls-2" d="M78.45,45.27s12.55-4.69,21.3,8c9.67,14.06-.12,22.77-.12,22.77"/></g></g></svg>